<?xml version="1.0" standalone="no"?>
<!DOCTYPE svg PUBLIC "-//W3C//DTD SVG 20010904//EN" "http://www.w3.org/TR/2001/REC-SVG-20010904/DTD/svg10.dtd">
<!-- Created using Krita: https://krita.org -->
<svg xmlns="http://www.w3.org/2000/svg" 
    xmlns:xlink="http://www.w3.org/1999/xlink"
    xmlns:krita="http://krita.org/namespaces/svg/krita"
    xmlns:sodipodi="http://sodipodi.sourceforge.net/DTD/sodipodi-0.dtd"
    width="1382.4pt"
    height="777.6pt"
    viewBox="0 0 1382.4 777.6">
<defs>
  <linearGradient id="gradient0" gradientUnits="objectBoundingBox" x1="0" y1="0" x2="1" y2="1" spreadMethod="pad">
   <stop stop-color="#e6e6e6" offset="0" stop-opacity="1"/>
   <stop stop-color="#e6e6e6" offset="1" stop-opacity="0"/>
  </linearGradient>
  <linearGradient id="gradient1" gradientUnits="objectBoundingBox" x1="0" y1="0" x2="1" y2="1" spreadMethod="pad">
   <stop stop-color="#e6e6e6" offset="0" stop-opacity="1"/>
   <stop stop-color="#e6e6e6" offset="1" stop-opacity="0"/>
  </linearGradient>
  <linearGradient id="gradient2" gradientUnits="objectBoundingBox" x1="0" y1="0" x2="1" y2="1" spreadMethod="pad">
   <stop stop-color="#e6e6e6" offset="0" stop-opacity="1"/>
   <stop stop-color="#e6e6e6" offset="1" stop-opacity="0"/>
  </linearGradient>
  <linearGradient id="gradient3" gradientUnits="objectBoundingBox" x1="0" y1="0" x2="1" y2="1" spreadMethod="pad">
   <stop stop-color="#e6e6e6" offset="0" stop-opacity="1"/>
   <stop stop-color="#e6e6e6" offset="1" stop-opacity="0"/>
  </linearGradient>
  <linearGradient id="gradient4" gradientUnits="objectBoundingBox" x1="0" y1="0" x2="1" y2="1" spreadMethod="pad">
   <stop stop-color="#e6e6e6" offset="0" stop-opacity="1"/>
   <stop stop-color="#e6e6e6" offset="1" stop-opacity="0"/>
  </linearGradient>
  <linearGradient id="gradient5" gradientUnits="objectBoundingBox" x1="0" y1="0" x2="0" y2="1.11481480823923" spreadMethod="pad">
   <stop stop-color="#d0cccc" offset="0" stop-opacity="1"/>
   <stop stop-color="#d0cccc" offset="1" stop-opacity="0"/>
  </linearGradient>
 </defs>
<path id="shape0" transform="matrix(0.999999982339365 0 0 0.999999982339365 0 1.90734860098019e-05)" fill="#e6e6e6" stroke="url(#gradient0)" stroke-width="3.6" stroke-linecap="square" stroke-linejoin="miter" stroke-miterlimit="2" d="M0 488.16L174.24 0" sodipodi:nodetypes="cc"/><path id="shape01" transform="matrix(0.999999962235559 0 0 0.999999962235559 0.509116891742821 -1.24004371956645)" fill="#e6e6e6" stroke="url(#gradient1)" stroke-width="3.6" stroke-linecap="square" stroke-linejoin="miter" stroke-miterlimit="2" d="M0 591.628L211.171 0" sodipodi:nodetypes="cc"/><path id="shape01" transform="matrix(0.999999962235559 0 0 0.999999962235559 1.0182337834856 -0.462900503034859)" fill="#e6e6e6" stroke="url(#gradient2)" stroke-width="3.6" stroke-linecap="square" stroke-linejoin="miter" stroke-miterlimit="2" d="M0 693.078L247.382 0" sodipodi:nodetypes="cc"/><path id="shape02" transform="matrix(0.999999962235559 0 0 0.999999962235559 6.47999965421866 0.314225039114291)" fill="#e6e6e6" stroke="url(#gradient3)" stroke-width="3.6" stroke-linecap="square" stroke-linejoin="miter" stroke-miterlimit="2" d="M0 780.653L278.64 0" sodipodi:nodetypes="cc"/><path id="shape03" transform="matrix(0.999999962235559 0 0 0.999999962235559 44.279997637161 -0.0134853166755389)" fill="#e6e6e6" stroke="url(#gradient4)" stroke-width="3.6" stroke-linecap="square" stroke-linejoin="miter" stroke-miterlimit="2" d="M0 777.627L277.56 0" sodipodi:nodetypes="cc"/><ellipse id="shape1" transform="matrix(0.999999982339365 0 0 0.999999982339365 -84.9599954080521 597.599986774192)" rx="203.039992611838" ry="146.88001087265" cx="203.039992611838" cy="146.88001087265" fill="#f2f2f2" stroke="#f2f2f2" stroke-width="3.6" stroke-linecap="square" stroke-linejoin="bevel" stroke-dasharray="14.4,7.2,3.6,7.2"/><path id="shape2" transform="matrix(0.951415744705226 0.307909151221154 -0.307909151221154 0.951415744705226 211.79759226421 512.325075884224)" fill="#e6e6e6" fill-rule="evenodd" stroke-opacity="0" stroke="#000000" stroke-width="0" stroke-linecap="square" stroke-linejoin="bevel" d="M28.44 21.6L40.32 0L50.76 20.88L82.08 24.48L53.28 36.72L64.08 62.64L40.68 42.84L15.12 61.2L27.72 34.56L0 26.64L28.44 21.6" sodipodi:nodetypes="ccccccccccc"/><path id="shape04" transform="matrix(0.904680222869047 -0.426091106915268 0.426091106915268 0.904680222869047 1083.52671352358 451.752197690559)" fill="#f2f2f2" fill-rule="evenodd" stroke-opacity="0" stroke="#000000" stroke-width="0" stroke-linecap="square" stroke-linejoin="bevel" d="M28.44 21.6L40.32 0L50.76 20.88L82.08 24.48L53.28 36.72L64.08 62.64L40.68 42.84L15.12 61.2L27.72 34.56L0 26.64L28.44 21.6" sodipodi:nodetypes="ccccccccccc"/><ellipse id="shape3" transform="matrix(0.999999982339365 0 0 0.999999982339365 1210.31997862498 660.240007413228)" rx="123.12" ry="89.28" cx="123.12" cy="89.28" fill="#e6e6e6" fill-rule="evenodd" stroke-opacity="0" stroke="#000000" stroke-width="0" stroke-linecap="square" stroke-linejoin="bevel"/><rect id="shape4" transform="matrix(-0.727177077910609 -0.686449897691103 0.686449897691103 -0.727177077910609 1277.40011878359 42.5343355286476)" fill="#f2f2f2" fill-opacity="0.686274509803922" fill-rule="evenodd" stroke-opacity="0" stroke="#000000" stroke-width="0" stroke-linecap="square" stroke-linejoin="bevel" width="17.0022930714703" height="16.4553484175057"/><rect id="shape05" transform="matrix(-0.727177064176538 -0.686449884726239 0.686449884726239 -0.727177064176538 1305.8400960324 42.1743358122391)" fill="#f2f2f2" fill-opacity="0.686274509803922" fill-rule="evenodd" stroke-opacity="0" stroke="#000000" stroke-width="0" stroke-linecap="square" stroke-linejoin="bevel" width="17.0022930714703" height="16.4553484175057"/><rect id="shape06" transform="matrix(-0.727177064176538 -0.686449884726239 0.686449884726239 -0.727177064176538 1332.40009368622 42.5343358296431)" fill="#f2f2f2" fill-opacity="0.686274509803922" fill-rule="evenodd" stroke-opacity="0" stroke="#000000" stroke-width="0" stroke-linecap="square" stroke-linejoin="bevel" width="17.0022930714703" height="16.4553484175057"/><rect id="shape07" transform="matrix(-0.727177064176538 -0.686449884726239 0.686449884726239 -0.727177064176538 1357.4000932447 42.5343358296432)" fill="#f2f2f2" fill-opacity="0.686274509803922" fill-rule="evenodd" stroke-opacity="0" stroke="#000000" stroke-width="0" stroke-linecap="square" stroke-linejoin="bevel" width="17.0022930714703" height="16.4553484175057"/><rect id="shape08" transform="matrix(-0.727177098721562 -0.686449917336492 0.686449917336492 -0.727177098721562 1277.76610307121 69.9340537819544)" fill="#f2f2f2" fill-opacity="0.686274509803922" fill-rule="evenodd" stroke-opacity="0" stroke="#000000" stroke-width="0" stroke-linecap="square" stroke-linejoin="bevel" width="17.0022930714703" height="16.4553484175057"/><rect id="shape09" transform="matrix(-0.727177084987491 -0.686449904371627 0.686449904371627 -0.727177084987491 1306.20608113394 69.5740540552432)" fill="#f2f2f2" fill-opacity="0.686274509803922" fill-rule="evenodd" stroke-opacity="0" stroke="#000000" stroke-width="0" stroke-linecap="square" stroke-linejoin="bevel" width="17.0022930714703" height="16.4553484175057"/><rect id="shape011" transform="matrix(-0.727177084987491 -0.686449904371627 0.686449904371627 -0.727177084987491 1332.76607954787 69.9340540829504)" fill="#f2f2f2" fill-opacity="0.686274509803922" fill-rule="evenodd" stroke-opacity="0" stroke="#000000" stroke-width="0" stroke-linecap="square" stroke-linejoin="bevel" width="17.0022930714703" height="16.4553484175057"/><rect id="shape021" transform="matrix(-0.727177084987491 -0.686449904371627 0.686449904371627 -0.727177084987491 1357.76607982183 69.9340540829505)" fill="#f2f2f2" fill-opacity="0.686274509803922" fill-rule="evenodd" stroke-opacity="0" stroke="#000000" stroke-width="0" stroke-linecap="square" stroke-linejoin="bevel" width="17.0022930714703" height="16.4553484175057"/><rect id="shape010" transform="matrix(-0.727177098721562 -0.686449917336492 0.686449917336492 -0.727177098721562 1277.76610307121 94.9340533404386)" fill="#f2f2f2" fill-opacity="0.686274509803922" fill-rule="evenodd" stroke-opacity="0" stroke="#000000" stroke-width="0" stroke-linecap="square" stroke-linejoin="bevel" width="17.0022930714703" height="16.4553484175057"/><rect id="shape011" transform="matrix(-0.727177084987491 -0.686449904371627 0.686449904371627 -0.727177084987491 1306.20608113394 94.5740536137275)" fill="#f2f2f2" fill-opacity="0.686274509803922" fill-rule="evenodd" stroke-opacity="0" stroke="#000000" stroke-width="0" stroke-linecap="square" stroke-linejoin="bevel" width="17.0022930714703" height="16.4553484175057"/><rect id="shape0111" transform="matrix(-0.727177084987491 -0.686449904371627 0.686449904371627 -0.727177084987491 1332.76607954787 94.9340536414341)" fill="#f2f2f2" fill-opacity="0.686274509803922" fill-rule="evenodd" stroke-opacity="0" stroke="#000000" stroke-width="0" stroke-linecap="square" stroke-linejoin="bevel" width="17.0022930714703" height="16.4553484175057"/><rect id="shape021" transform="matrix(-0.727177084987491 -0.686449904371627 0.686449904371627 -0.727177084987491 1357.76607982183 94.9340536414354)" fill="#f2f2f2" fill-opacity="0.686274509803922" fill-rule="evenodd" stroke-opacity="0" stroke="#000000" stroke-width="0" stroke-linecap="square" stroke-linejoin="bevel" width="17.0022930714703" height="16.4553484175057"/><rect id="shape012" transform="matrix(-0.727177098721562 -0.686449917336492 0.686449917336492 -0.727177098721562 1277.76610307121 119.934052898923)" fill="#f2f2f2" fill-opacity="0.686274509803922" fill-rule="evenodd" stroke-opacity="0" stroke="#000000" stroke-width="0" stroke-linecap="square" stroke-linejoin="bevel" width="17.0022930714703" height="16.4553484175057"/><rect id="shape013" transform="matrix(-0.727177084987491 -0.686449904371627 0.686449904371627 -0.727177084987491 1306.20608113394 119.574053172212)" fill="#f2f2f2" fill-opacity="0.686274509803922" fill-rule="evenodd" stroke-opacity="0" stroke="#000000" stroke-width="0" stroke-linecap="square" stroke-linejoin="bevel" width="17.0022930714703" height="16.4553484175057"/><rect id="shape0121" transform="matrix(-0.727177084987491 -0.686449904371627 0.686449904371627 -0.727177084987491 1332.76607954787 119.934053199917)" fill="#f2f2f2" fill-opacity="0.686274509803922" fill-rule="evenodd" stroke-opacity="0" stroke="#000000" stroke-width="0" stroke-linecap="square" stroke-linejoin="bevel" width="17.0022930714703" height="16.4553484175057"/><rect id="shape022" transform="matrix(-0.727177084987491 -0.686449904371627 0.686449904371627 -0.727177084987491 1357.76607982183 119.934053199919)" fill="#f2f2f2" fill-opacity="0.686274509803922" fill-rule="evenodd" stroke-opacity="0" stroke="#000000" stroke-width="0" stroke-linecap="square" stroke-linejoin="bevel" width="17.0022930714703" height="16.4553484175057"/><rect id="shape014" transform="matrix(-0.593473993089381 -0.531943747751383 0.560235153463701 -0.563504053833706 1119.57995354629 756.908655958441)" fill="#f2f2f2" fill-rule="evenodd" stroke-opacity="0" stroke="#000000" stroke-width="0" stroke-linecap="square" stroke-linejoin="bevel" width="17.0022930714703" height="16.4553484175057"/><rect id="shape015" transform="matrix(-0.593473981880538 -0.531943737704651 0.560235142882634 -0.5635040431909 1142.79078812006 756.629684981856)" fill="#f2f2f2" fill-rule="evenodd" stroke-opacity="0" stroke="#000000" stroke-width="0" stroke-linecap="square" stroke-linejoin="bevel" width="17.0022930714703" height="16.4553484175057"/><rect id="shape0131" transform="matrix(-0.593473981880538 -0.531943737704651 0.560235142882634 -0.5635040431909 1164.46730728283 756.908656191689)" fill="#f2f2f2" fill-rule="evenodd" stroke-opacity="0" stroke="#000000" stroke-width="0" stroke-linecap="square" stroke-linejoin="bevel" width="17.0022930714703" height="16.4553484175057"/><rect id="shape023" transform="matrix(-0.593473981880538 -0.531943737704651 0.560235142882634 -0.5635040431909 1184.87065884038 756.908656191689)" fill="#f2f2f2" fill-rule="evenodd" stroke-opacity="0" stroke="#000000" stroke-width="0" stroke-linecap="square" stroke-linejoin="bevel" width="17.0022930714703" height="16.4553484175057"/><rect id="shape031" transform="matrix(-0.59347401007391 -0.531943762974989 0.560235169496973 -0.56350406996053 1119.87864579495 778.141245349189)" fill="#f2f2f2" fill-rule="evenodd" stroke-opacity="0" stroke="#000000" stroke-width="0" stroke-linecap="square" stroke-linejoin="bevel" width="17.0022930714703" height="16.4553484175057"/><rect id="shape041" transform="matrix(-0.593473998865066 -0.531943752928256 0.560235158915905 -0.563504059317723 1143.08948103299 777.86227436462)" fill="#f2f2f2" fill-rule="evenodd" stroke-opacity="0" stroke="#000000" stroke-width="0" stroke-linecap="square" stroke-linejoin="bevel" width="17.0022930714703" height="16.4553484175057"/><rect id="shape0141" transform="matrix(-0.593473998865066 -0.531943752928256 0.560235158915905 -0.563504059317723 1164.76600081612 778.141245582437)" fill="#f2f2f2" fill-rule="evenodd" stroke-opacity="0" stroke="#000000" stroke-width="0" stroke-linecap="square" stroke-linejoin="bevel" width="17.0022930714703" height="16.4553484175057"/><rect id="shape024" transform="matrix(-0.593473998865066 -0.531943752928256 0.560235158915905 -0.563504059317723 1185.1693529576 778.141245582437)" fill="#f2f2f2" fill-rule="evenodd" stroke-opacity="0" stroke="#000000" stroke-width="0" stroke-linecap="square" stroke-linejoin="bevel" width="17.0022930714703" height="16.4553484175057"/><rect id="shape051" transform="matrix(-0.59347401007391 -0.531943762974989 0.560235169496973 -0.56350406996053 1119.87864579495 797.514244753303)" fill="#f2f2f2" fill-rule="evenodd" stroke-opacity="0" stroke="#000000" stroke-width="0" stroke-linecap="square" stroke-linejoin="bevel" width="17.0022930714703" height="16.4553484175057"/><rect id="shape061" transform="matrix(-0.593473998865066 -0.531943752928256 0.560235158915905 -0.563504059317723 1143.08948103299 797.235273768733)" fill="#f2f2f2" fill-rule="evenodd" stroke-opacity="0" stroke="#000000" stroke-width="0" stroke-linecap="square" stroke-linejoin="bevel" width="17.0022930714703" height="16.4553484175057"/><rect id="shape0112" transform="matrix(-0.593473998865066 -0.531943752928256 0.560235158915905 -0.563504059317723 1164.76600081612 797.51424498655)" fill="#f2f2f2" fill-rule="evenodd" stroke-opacity="0" stroke="#000000" stroke-width="0" stroke-linecap="square" stroke-linejoin="bevel" width="17.0022930714703" height="16.4553484175057"/><rect id="shape0211" transform="matrix(-0.593473998865066 -0.531943752928256 0.560235158915905 -0.563504059317723 1185.1693529576 797.514244986551)" fill="#f2f2f2" fill-rule="evenodd" stroke-opacity="0" stroke="#000000" stroke-width="0" stroke-linecap="square" stroke-linejoin="bevel" width="17.0022930714703" height="16.4553484175057"/><rect id="shape071" transform="matrix(-0.59347401007391 -0.531943762974989 0.560235169496973 -0.56350406996053 1119.87864579495 816.887244157415)" fill="#cccccc" fill-rule="evenodd" stroke-opacity="0" stroke="#000000" stroke-width="0" stroke-linecap="square" stroke-linejoin="bevel" width="17.0022930714703" height="16.4553484175057"/><rect id="shape081" transform="matrix(-0.593473998865066 -0.531943752928256 0.560235158915905 -0.563504059317723 1143.08948103299 816.608273172846)" fill="#cccccc" fill-rule="evenodd" stroke-opacity="0" stroke="#000000" stroke-width="0" stroke-linecap="square" stroke-linejoin="bevel" width="17.0022930714703" height="16.4553484175057"/><rect id="shape0122" transform="matrix(-0.593473998865066 -0.531943752928256 0.560235158915905 -0.563504059317723 1164.76600081612 816.887244390661)" fill="#cccccc" fill-rule="evenodd" stroke-opacity="0" stroke="#000000" stroke-width="0" stroke-linecap="square" stroke-linejoin="bevel" width="17.0022930714703" height="16.4553484175057"/><rect id="shape0221" transform="matrix(-0.593473998865066 -0.531943752928256 0.560235158915905 -0.563504059317723 1185.1693529576 816.887244390663)" fill="#cccccc" fill-rule="evenodd" stroke-opacity="0" stroke="#000000" stroke-width="0" stroke-linecap="square" stroke-linejoin="bevel" width="17.0022930714703" height="16.4553484175057"/><path id="shape5" transform="matrix(0.999999982339365 0 0 0.999999982339365 849.599988928806 1.90734860098019e-05)" fill="#f2f2f2" fill-opacity="0.2" fill-rule="evenodd" stroke-opacity="0" stroke="#000000" stroke-width="0" stroke-linecap="square" stroke-linejoin="bevel" d="M0 0L86.4 282.24L213.12 0L0 0" sodipodi:nodetypes="cccc"/><ellipse id="shape6" transform="matrix(0.999999982339365 0 0 0.999999982339365 449.279991382212 -71.2799808724889)" rx="137.52" ry="105.120000089999" cx="137.52" cy="105.120000089999" fill="none" stroke-opacity="0.486274509803922" stroke="#f2f2f2" stroke-width="3.6" stroke-linecap="square" stroke-linejoin="bevel" stroke-dasharray="14.4,7.2,3.6,7.2"/><rect id="shape02" transform="matrix(0.999999982339365 0 0 0.999999982339365 0 1.90734860098019e-05)" fill="url(#gradient5)" fill-rule="evenodd" stroke-opacity="0" stroke="#000000" stroke-width="0" stroke-linecap="square" stroke-linejoin="bevel" width="1382.4" height="777.6"/>
</svg>
