<?xml version="1.0" standalone="no"?>
<!DOCTYPE svg PUBLIC "-//W3C//DTD SVG 20010904//EN" "http://www.w3.org/TR/2001/REC-SVG-20010904/DTD/svg10.dtd">
<!-- Created using Krita: https://krita.org -->
<svg xmlns="http://www.w3.org/2000/svg" 
    xmlns:xlink="http://www.w3.org/1999/xlink"
    xmlns:krita="http://krita.org/namespaces/svg/krita"
    xmlns:sodipodi="http://sodipodi.sourceforge.net/DTD/sodipodi-0.dtd"
    width="1474.56pt"
    height="1474.56pt"
    viewBox="0 0 1474.56 1474.56">
<defs/>
<path id="shape0" transform="matrix(0.999999960263572 0 0 0.999999960263572 392.923794784061 76.6448364821869)" fill="#111111" fill-rule="evenodd" stroke="#000000" stroke-opacity="0" stroke-width="0" stroke-linecap="square" stroke-linejoin="bevel" d="M450.556 0.03516C425.24 -2.65194 388.76 149.438 344.356 196.595C297.956 245.873 199.23 275.265 145.996 319.715C101.187 357.13 24.7953 426.873 12.3333 480.329C-8.10084 567.981 -0.604781 589.431 16.3962 642.635C21.5844 658.872 13.9815 686.714 36.9162 697.715C47.4477 702.767 67.7411 709.037 80.1162 707.435C163.321 696.664 270.215 619.198 344.356 570.275C372.319 551.824 410.52 524.727 431.116 498.995C457.96 465.458 486.695 409.865 496.996 368.315C508.934 320.166 505.509 248.967 500.236 198.755C493.858 138.022 473.715 2.49331 450.556 0.03516Z"/><path id="shape01" transform="matrix(0.999999960263572 0 0 0.999999960263572 448.231372369852 327.721159671753)" fill="#111111" fill-rule="evenodd" stroke="#000000" stroke-opacity="0" stroke-width="0" stroke-linecap="square" stroke-linejoin="bevel" d="M24.0886 457.079C14.6105 466.024 3.92971 483.372 1.04858 495.959C-1.11653 505.417 0.181221 520.855 3.92858 529.799C8.3232 540.288 27.1145 549.641 29.8486 560.039C36.2461 584.369 13.5526 623.819 11.8486 651.479C10.1856 678.473 10.8238 716.614 18.3286 742.199C24.2839 762.501 39.3025 789.228 52.8886 805.559C64.0652 818.993 83.2718 835.919 98.9686 842.999C110.547 848.221 129.23 850.32 142.169 850.199C151.472 850.111 165.702 841.486 173.129 844.439C213.479 860.481 234.843 952.763 273.929 982.679C325.89 1022.45 448.757 1085.47 486.329 1064.04C492.722 1060.39 486.053 1031.1 492.809 1025.88C499.999 1020.33 527.928 1035.11 533.849 1029.48C547.413 1016.57 520.701 959.241 530.249 935.159C536.995 918.142 561.527 899.506 577.769 888.359C598.17 874.357 647.572 870.542 654.089 853.799C658.655 842.066 625.745 806.993 631.049 799.799C636.738 792.082 687.539 814.177 693.689 806.279C713.528 780.795 640.806 673.879 623.849 615.479C613.394 579.474 593.094 528.388 597.209 493.079C601.482 456.405 643.015 412.743 653.369 375.719C662.639 342.569 671.06 292.773 664.889 259.799C652.317 192.624 584.024 113.938 557.609 48.1188C552.082 34.3472 552.052 4.43982 543.209 0.598806C534.491 -3.1873 507.561 11.8129 499.289 22.1988C479.66 46.8428 485.863 103.501 472.649 135.239C454.69 178.37 422.944 238.711 389.129 269.159C363.395 292.33 313.243 305.389 281.129 321.719C203.106 361.393 84.3747 400.184 24.0886 457.079Z"/><path id="shape02" transform="matrix(0.999999960263572 0 0 0.999999960263572 714.302047107663 1114.07401715431)" fill="#ffffff" fill-rule="evenodd" stroke="#000000" stroke-opacity="0" stroke-width="0" stroke-linecap="square" stroke-linejoin="bevel" d="M1.73786 4.80584C-11.6317 29.0068 55.2879 127.875 94.6179 161.406C105.405 170.603 126.78 178.637 141.058 179.766C155.293 180.891 181.603 178.014 189.658 168.966C201.602 155.547 202.682 115.436 197.218 95.5258C194.132 84.2834 181.526 70.1837 172.378 62.0458C148.598 40.8908 108.731 17.2417 78.4179 8.04584C56.0124 1.2488 6.81507 -4.38468 1.73786 4.80584Z"/><path id="shape1" transform="matrix(0.999999960263572 0 0 0.999999960263572 719.267473130716 492.478993187174)" fill="#ffffff" fill-rule="evenodd" stroke="#000000" stroke-opacity="0" stroke-width="0" stroke-linecap="square" stroke-linejoin="bevel" d="M199.812 126.361C175.615 157.599 134.652 197.022 100.452 216.001C73.7493 230.82 0.857728 233.892 0.0124354 244.801C-1.34532 262.324 108.845 290.313 152.292 315.361C187.817 335.841 252.49 402.409 264.612 394.201C275.003 387.165 230.15 310.262 237.612 279.721C244.123 253.075 295.297 228.998 304.572 201.961C316.301 167.772 307.238 109.466 298.092 72.3609C292.473 49.5624 275.056 0.195047 264.612 0.000944146C246.201 -0.341234 226.104 92.4191 199.812 126.361Z"/><path id="shape03" transform="matrix(0.999999960263572 0 0 0.999999960263572 737.113375929969 985.182754199486)" fill="#ffffff" fill-rule="evenodd" stroke="#000000" stroke-opacity="0" stroke-width="0" stroke-linecap="square" stroke-linejoin="bevel" d="M0.166595 77.5372C3.99858 96.5904 78.9872 117.95 113.927 120.737C152.241 123.793 227.526 117.644 244.607 93.7372C253.386 81.4496 247.454 37.3064 235.967 25.6972C210.768 0.232076 127.04 -5.67084 86.9266 5.1772C57.5285 13.1274 -3.60226 58.798 0.166595 77.5372Z"/>
</svg>
